<svg width="35" height="35" viewBox="0 0 35 35" fill="none" xmlns="http://www.w3.org/2000/svg">
<path d="M22.2974 17.0874C20.9186 17.0471 19.5318 17.0309 18.1531 17.0229C18.1531 15.6441 18.145 14.2573 18.1047 12.8786L18.0402 10.5243C17.9999 9.74217 17.9757 8.95201 17.9193 8.16992H17.2581C17.2017 8.95201 17.1775 9.74217 17.1372 10.5243L17.0727 12.8786C17.0566 13.5236 17.0485 14.1767 17.0404 14.8217C16.7824 14.2251 16.5325 13.6284 16.2664 13.0398L15.3069 10.8951C14.9683 10.1856 14.6458 9.46803 14.2991 8.76657L13.6863 9.02458C13.9363 9.76635 14.2104 10.5001 14.4765 11.2418L15.315 13.443C15.5488 14.0477 15.7907 14.6524 16.0326 15.2491C15.573 14.7975 15.1054 14.346 14.6377 13.8945L12.9284 12.2739C12.3479 11.7498 11.7754 11.2096 11.1788 10.6936L10.7112 11.1612C11.2272 11.7579 11.7674 12.3223 12.2915 12.9108L13.9121 14.6202C14.3555 15.0878 14.807 15.5554 15.2666 16.015C14.6619 15.7731 14.0653 15.5312 13.4606 15.2974L11.2594 14.4589C10.5176 14.1928 9.78393 13.9187 9.04216 13.6687L8.78415 14.2815C9.48561 14.6363 10.2032 14.9507 10.9127 15.2894L13.0574 16.2488C13.646 16.5149 14.2427 16.7649 14.8393 17.0229C14.1943 17.0309 13.5412 17.039 12.8962 17.0551L10.5418 17.1196C9.75974 17.1599 8.96959 17.1841 8.1875 17.2406V17.9017C8.96959 17.9581 9.75974 17.9823 10.5418 18.0227L12.8962 18.0872C14.2749 18.1275 15.6617 18.1275 17.0404 18.1355C17.0485 19.5143 17.0566 20.9011 17.1049 22.2798L17.1775 24.6341C17.2178 25.4162 17.242 26.2064 17.2984 26.9885H17.9032C17.9596 26.2064 17.9838 25.4162 18.0241 24.6341L18.0967 22.2798C18.1209 21.6187 18.1289 20.9494 18.137 20.2883C18.4031 20.9011 18.6611 21.5058 18.9352 22.1105L19.9027 24.2552C20.2414 24.9647 20.5639 25.6823 20.9186 26.3838L21.475 26.1499C21.225 25.4001 20.9509 24.6664 20.6929 23.9246L19.8624 21.7235C19.6286 21.1026 19.3867 20.4818 19.1368 19.869C19.6125 20.3286 20.0882 20.7963 20.5719 21.2478L22.2893 22.8603C22.8698 23.3844 23.4423 23.9246 24.0389 24.4326L24.4663 24.0052C23.9502 23.4086 23.4181 22.8361 22.894 22.2556L21.2815 20.5382C20.83 20.0545 20.3623 19.5788 19.9027 19.1031C20.5236 19.3449 21.1363 19.5949 21.7572 19.8287L23.9583 20.6592C24.7001 20.9172 25.4338 21.1994 26.1836 21.4413L26.4175 20.8849C25.716 20.5302 24.9984 20.2077 24.2889 19.869L22.1442 18.9015C21.5395 18.6274 20.9267 18.3613 20.322 18.1033C20.9831 18.0952 21.6524 18.0872 22.3135 18.063L24.6678 17.9904C25.4499 17.9501 26.2401 17.9259 27.0222 17.8695V17.2647C26.2401 17.2083 25.4499 17.1841 24.6678 17.1438L22.2974 17.0874Z" fill="white"/>
<path d="M17.5874 2.1875C9.09731 2.1875 2.1875 9.09731 2.1875 17.5874C2.1875 26.0775 9.09731 32.9874 17.5874 32.9874C26.0775 32.9874 32.9874 26.0775 32.9874 17.5874C32.9954 9.09731 26.0856 2.1875 17.5874 2.1875ZM17.5874 31.5522C9.88746 31.5522 3.62268 25.2874 3.62268 17.5874C3.62268 9.88747 9.88746 3.62268 17.5874 3.62268C25.2874 3.62268 31.5522 9.88747 31.5522 17.5874C31.5522 25.2874 25.2874 31.5522 17.5874 31.5522Z" fill="white"/>
</svg>
